HIERARCHY
ROOT joint_Root
{
  OFFSET 0 0 0
  CHANNELS 6 Xposition Yposition Zposition Zrotation Xrotation Yrotation
  JOINT Hips
  {
    OFFSET 0.847027 93.984 -452.225
    CHANNELS 6 Xposition Yposition Zposition Zrotation Xrotation Yrotation
    JOINT Spine
    {
      OFFSET 15.7357 0 0
      CHANNELS 6 Xposition Yposition Zposition Zrotation Xrotation Yrotation
      JOINT Chest
      {
        OFFSET 8.98455 -0.406207 0
        CHANNELS 6 Xposition Yposition Zposition Zrotation Xrotation Yrotation
        JOINT Neck
        {
          OFFSET 16.3773 0 0
          CHANNELS 6 Xposition Yposition Zposition Zrotation Xrotation Yrotation
          JOINT Head
          {
            OFFSET 6.45672 0 0
            CHANNELS 6 Xposition Yposition Zposition Zrotation Xrotation Yrotation
            End Site
            {
              OFFSET 0 0 0
            }
          }
        }
        JOINT Shoulder_L
        {
          OFFSET 12.9942 -0.242716 4.98039
          CHANNELS 6 Xposition Yposition Zposition Zrotation Xrotation Yrotation
          JOINT UpperArm_L
          {
            OFFSET 5.34809 0 0
            CHANNELS 6 Xposition Yposition Zposition Zrotation Xrotation Yrotation
            JOINT LowerArm_L
            {
              OFFSET 24.3286 1.87007e-05 0
              CHANNELS 6 Xposition Yposition Zposition Zrotation Xrotation Yrotation
              JOINT Hand_L
              {
                OFFSET 22.2916 0 0
                CHANNELS 6 Xposition Yposition Zposition Zrotation Xrotation Yrotation
                End Site
                {
                  OFFSET 0 0 0
                }
              }
            }
          }
        }
        JOINT Shoulder_R
        {
          OFFSET 12.9945 -0.242716 -4.98039
          CHANNELS 6 Xposition Yposition Zposition Zrotation Xrotation Yrotation
          JOINT UpperArm_R
          {
            OFFSET -5.34813 0 0
            CHANNELS 6 Xposition Yposition Zposition Zrotation Xrotation Yrotation
            JOINT LowerArm_R
            {
              OFFSET -24.3289 0.000322201 0
              CHANNELS 6 Xposition Yposition Zposition Zrotation Xrotation Yrotation
              JOINT Hand_R
              {
                OFFSET -22.2915 -0.000108084 0
                CHANNELS 6 Xposition Yposition Zposition Zrotation Xrotation Yrotation
                End Site
                {
                  OFFSET 0 0 0
                }
              }
            }
          }
        }
      }
    }
    JOINT UpperLeg_L
    {
      OFFSET -2.19248 -6.46944 0
      CHANNELS 6 Xposition Yposition Zposition Zrotation Xrotation Yrotation
      JOINT LowerLeg_L
      {
        OFFSET 39.0811 0 -1.23785e-05
        CHANNELS 6 Xposition Yposition Zposition Zrotation Xrotation Yrotation
        JOINT Foot_L
        {
          OFFSET 40.9854 0 -1.26872e-05
          CHANNELS 6 Xposition Yposition Zposition Zrotation Xrotation Yrotation
          JOINT Toes_L
          {
            OFFSET 11.7543 0 0
            CHANNELS 6 Xposition Yposition Zposition Zrotation Xrotation Yrotation
            End Site
            {
              OFFSET 0 0 0
            }
          }
        }
      }
    }
    JOINT UpperLeg_R
    {
      OFFSET -2.19251 6.46944 0
      CHANNELS 6 Xposition Yposition Zposition Zrotation Xrotation Yrotation
      JOINT LowerLeg_R
      {
        OFFSET -39.0811 -0.00228153 -0.0401928
        CHANNELS 6 Xposition Yposition Zposition Zrotation Xrotation Yrotation
        JOINT Foot_R
        {
          OFFSET -40.9854 0 0
          CHANNELS 6 Xposition Yposition Zposition Zrotation Xrotation Yrotation
          JOINT Toes_R
          {
            OFFSET -11.7543 0 0
            CHANNELS 6 Xposition Yposition Zposition Zrotation Xrotation Yrotation
            End Site
            {
              OFFSET 0 0 0
            }
          }
        }
      }
    }
  }
}
MOTION
Frames:	9
Frame Time:	0.0333333
0 0 0 0 0 -0 3.55998 89.2889 -359.362 84.3761 -11.4462 6.72133 15.7357 5.1072e-06 -5.51765e-07 53.4155 87.9219 -53.5571 8.98455 -0.406207 -4.3199e-07 -4.43396 -2.46001 -0.378644 16.3773 -1.3905e-06 -6.99897e-07 -0.168171 -0.101306 2.76575 6.45672 -1.25837e-06 -1.02172e-07 2.13325 4.19817 8.2316 12.9942 -0.242716 4.98039 -90.7528 1.90647 -83.4517 5.34809 -7.22636e-06 -6.2814e-07 -56.0393 7.85554 -1.19457 24.3286 1.87007e-05 4.90208e-06 0.334153 0.789583 -22.937 22.2916 -9.88446e-07 4.63217e-06 17.6341 5.54389 -8.41756 12.9945 -0.242716 -4.98039 87.4824 8.20785 -87.8805 -5.34813 -1.25947e-06 -3.79883e-06 -61.8561 -1.32473 27.7039 -24.3289 0.000322201 -8.65921e-06 7.96377 15.3648 -27.8363 -22.2915 -0.000108084 -4.47941e-06 0.509331 5.49537 -6.34813 -2.19248 -6.46944 -1.22533e-07 -169.548 -13.3209 2.24355 39.0811 -6.73843e-06 -1.23785e-05 0.0316915 -0.0100165 37.2512 40.9854 -6.48686e-06 -1.26872e-05 -2.43151 -3.52023 -77.312 11.7543 -2.30145e-07 3.05095e-06 0.0687463 -0.109952 -18.526 -2.19251 6.46944 -1.45247e-06 171.184 19.2097 165.709 -39.0811 -0.00228153 -0.0401928 0.347265 -0.193102 59.1488 -40.9854 7.72618e-06 5.99936e-06 -8.5144 2.30492 -54.9171 -11.7543 -5.6619e-06 -5.58687e-06 0.331943 -0.394543 -20.3657 
0 0 0 0 0 -0 3.73447 89.7223 -357.382 84.214 -9.91367 6.01753 15.7357 5.1072e-06 -5.51765e-07 40.9697 87.394 -40.6333 8.98455 -0.406207 -4.3199e-07 -4.34238 -3.96777 0.522824 16.3773 -1.3905e-06 -6.99897e-07 -0.478689 -0.454932 3.16338 6.45672 -1.25837e-06 -1.02172e-07 1.78088 5.17925 7.75783 12.9942 -0.242716 4.98039 -90.3789 1.04339 -85.0521 5.34809 -7.22636e-06 -6.2814e-07 -54.6239 7.70921 -4.05702 24.3286 1.87007e-05 4.90207e-06 0.317694 0.622655 -27.0201 22.2916 -9.88446e-07 4.63217e-06 17.9682 5.54909 -8.66421 12.9945 -0.242716 -4.98039 87.4514 7.5681 -86.3263 -5.34813 -1.25947e-06 -3.79883e-06 -61.182 -1.29094 29.7648 -24.3289 0.000322201 -8.65921e-06 8.19015 15.326 -28.5732 -22.2915 -0.000108084 -4.47941e-06 0.126461 5.49626 -6.38344 -2.19248 -6.46944 -1.22534e-07 -169.723 -12.3576 4.09773 39.0811 -6.73843e-06 -1.23785e-05 0.0233918 0.000740924 34.0619 40.9854 -6.48686e-06 -1.26872e-05 -1.93835 -3.36132 -76.2551 11.7543 -2.30145e-07 3.05095e-06 0.0913906 -0.148088 -19.1924 -2.19251 6.46944 -1.45247e-06 173.929 22.2507 161.47 -39.0811 -0.00228153 -0.0401928 0.261592 -0.173339 54.5239 -40.9854 7.72618e-06 5.99936e-06 -8.77177 1.54277 -55.9177 -11.7543 -5.6619e-06 -5.58687e-06 0.322042 -0.381979 -20.2481 
0 0 0 0 0 -0 3.84258 89.885 -355.498 84.2474 -8.42565 5.14975 15.7357 5.1072e-06 -5.51765e-07 33.3786 86.7852 -32.6327 8.98455 -0.406207 -4.3199e-07 -4.2025 -5.44293 1.29363 16.3773 -1.3905e-06 -6.99897e-07 -0.605225 -0.789903 3.60101 6.45672 -1.25837e-06 -1.02172e-07 1.35744 6.28249 7.27539 12.9942 -0.242716 4.98039 -90.1265 0.376484 -86.441 5.34809 -7.22636e-06 -6.2814e-07 -52.6388 7.24139 -6.18568 24.3286 1.87007e-05 4.90208e-06 -0.144165 -0.230856 -31.8251 22.2916 -9.88446e-07 4.63217e-06 19.0583 5.56178 -9.26744 12.9945 -0.242716 -4.98039 87.4069 7.07826 -84.8196 -5.34813 -1.25947e-06 -3.79883e-06 -60.3712 -1.24862 31.1366 -24.3289 0.000322201 -8.65921e-06 8.21285 14.8341 -29.4156 -22.2915 -0.000108084 -4.47941e-06 0.0122694 5.49991 -6.5297 -2.19248 -6.46944 -1.22534e-07 -169.956 -11.636 5.21227 39.0811 -6.73843e-06 -1.23785e-05 0.0167161 0.0117603 31.9176 40.9854 -6.48686e-06 -1.26872e-05 -1.65112 -2.92451 -75.5904 11.7543 -2.30145e-07 3.05095e-06 0.10682 -0.174645 -19.6538 -2.19251 6.46944 -1.45247e-06 176.958 24.4439 157.385 -39.0811 -0.00228153 -0.0401928 0.171883 -0.139123 48.5712 -40.9854 7.72618e-06 5.99936e-06 -8.09289 0.650582 -56.9427 -11.7543 -5.6619e-06 -5.58687e-06 0.309557 -0.366206 -20.1002 
0 0 0 0 0 -0 3.90046 89.7496 -353.556 84.6914 -7.05554 4.46105 15.7357 5.1072e-06 -5.51765e-07 30.067 86.1399 -29.0414 8.98455 -0.406207 -4.3199e-07 -3.84999 -6.78103 1.8256 16.3773 -1.3905e-06 -6.99897e-07 -0.434964 -0.945924 3.90945 6.45672 -1.25837e-06 -1.02172e-07 0.710392 7.27011 6.8868 12.9942 -0.242716 4.98039 -89.9254 -0.232596 -87.1909 5.34809 -7.22636e-06 -6.2814e-07 -50.2255 7.12345 -8.31876 24.3286 1.87007e-05 4.90208e-06 -1.47111 -1.9981 -36.3432 22.2916 -9.88446e-07 4.63217e-06 20.4903 5.57832 -10.1164 12.9945 -0.242716 -4.98039 87.3883 6.56617 -83.2522 -5.34813 -1.25947e-06 -3.79883e-06 -59.4989 -1.32809 31.7515 -24.3289 0.000322201 -8.65921e-06 8.59584 14.766 -30.675 -22.2915 -0.000108084 -4.47941e-06 -0.0247576 5.50043 -6.55016 -2.19248 -6.46944 -1.22533e-07 -170.471 -11.0569 6.06233 39.0811 -6.73843e-06 -1.23785e-05 0.0120932 0.022162 30.7656 40.9854 -6.48686e-06 -1.26872e-05 -1.34622 -2.47259 -75.3833 11.7543 -2.30145e-07 3.05095e-06 0.129512 -0.214677 -20.3453 -2.19251 6.46944 -1.45247e-06 179.388 25.6384 154.217 -39.0811 -0.00228153 -0.0401928 0.0960154 -0.0973318 41.2246 -40.9854 7.72618e-06 5.99936e-06 -8.63179 1.27896 -56.2079 -11.7543 -5.6619e-06 -5.58687e-06 0.303076 -0.358048 -20.0238 
0 0 0 0 0 -0 3.91657 89.3183 -351.373 85.441 -5.82181 4.08142 15.7357 5.1072e-06 -5.51765e-07 29.0128 85.5295 -27.7763 8.98455 -0.406207 -4.3199e-07 -3.35789 -7.935 2.24365 16.3773 -1.3905e-06 -6.99897e-07 0.105141 -1.0521 3.95259 6.45672 -1.25837e-06 -1.02172e-07 0.13354 8.09676 6.23657 12.9942 -0.242716 4.98039 -89.8078 -0.615407 -87.6547 5.34809 -7.22636e-06 -6.2814e-07 -47.6689 6.90949 -9.87481 24.3286 1.87007e-05 4.90208e-06 -3.1109 -3.58392 -40.9857 22.2916 -9.88446e-07 4.63217e-06 21.2462 5.57587 -9.99346 12.9945 -0.242716 -4.98039 87.4333 6.03531 -81.9084 -5.34813 -1.25947e-06 -3.79883e-06 -58.5693 -1.66591 32.3194 -24.3289 0.000322201 -8.65921e-06 8.79142 14.0428 -32.5163 -22.2915 -0.000108084 -4.47941e-06 0.0191191 5.50742 -6.83451 -2.19248 -6.46944 -1.22533e-07 -171.235 -10.3698 6.95887 39.0811 -6.73843e-06 -1.23785e-05 0.00898682 0.0314634 30.57 40.9854 -6.48686e-06 -1.26872e-05 -1.09174 -2.24231 -75.6856 11.7543 -2.30145e-07 3.05095e-06 0.143607 -0.270359 -21.1239 -2.19251 6.46944 -1.45247e-06 -179.174 26.0224 152.16 -39.0811 -0.00228153 -0.0401928 0.0374911 -0.0438204 33.5109 -40.9854 7.72618e-06 5.99936e-06 -10.4588 2.84689 -54.2912 -11.7543 -5.6619e-06 -5.58687e-06 0.306094 -0.361846 -20.0592 
0 0 0 0 0 -0 3.80361 88.6202 -348.908 86.3312 -4.43947 3.88372 15.7357 5.1072e-06 -5.51765e-07 28.9314 84.9487 -27.5439 8.98455 -0.406207 -4.3199e-07 -2.7833 -8.96603 2.56124 16.3773 -1.3905e-06 -6.99897e-07 0.657339 -1.19923 3.82214 6.45672 -1.25837e-06 -1.02172e-07 -0.288052 8.75118 5.43292 12.9942 -0.242716 4.98039 -89.8017 -0.655162 -88.1588 5.34809 -7.22636e-06 -6.2814e-07 -45.0177 6.41833 -10.7107 24.3286 1.87007e-05 4.90208e-06 -5.52622 -5.36893 -45.9401 22.2916 -9.88446e-07 4.63217e-06 20.9383 5.56854 -9.61296 12.9945 -0.242716 -4.98039 87.4275 5.74552 -80.8296 -5.34813 -1.25947e-06 -3.79883e-06 -57.6049 -2.03779 33.0102 -24.3289 0.000322201 -8.65921e-06 8.12101 12.0526 -34.3536 -22.2915 -0.000108084 -4.47941e-06 0.0213396 5.51689 -7.22873 -2.19248 -6.46944 -1.22534e-07 -171.822 -9.75361 7.79218 39.0811 -6.73843e-06 -1.23785e-05 0.00572437 0.0412068 31.3326 40.9854 -6.48686e-06 -1.26872e-05 -0.962445 -1.63361 -76.4078 11.7543 -2.30145e-07 3.05095e-06 0.18933 -0.32589 -22.2426 -2.19251 6.46944 -1.45247e-06 -178.722 25.4399 150.695 -39.0811 -0.00228153 -0.0401928 -0.00281527 0.020001 27.2981 -40.9854 7.72618e-06 5.99936e-06 -11.7382 4.02815 -53.8057 -11.7543 -5.6619e-06 -5.58687e-06 0.313377 -0.371016 -20.1455 
0 0 0 0 0 -0 3.48975 87.7337 -346.164 87.1203 -2.89077 3.75537 15.7357 5.1072e-06 -5.51765e-07 29.5468 84.3317 -28.0096 8.98455 -0.406207 -4.3199e-07 -2.05022 -9.99139 2.90081 16.3773 -1.3905e-06 -6.99897e-07 0.927929 -1.27406 3.60501 6.45672 -1.25837e-06 -1.02172e-07 -0.752578 9.32167 4.78486 12.9942 -0.242716 4.98039 -89.8578 -0.482065 -88.5593 5.34809 -7.22636e-06 -6.2814e-07 -42.5824 5.84353 -11.0741 24.3286 1.87007e-05 4.90208e-06 -8.4778 -6.99254 -50.7514 22.2916 -9.88446e-07 4.63217e-06 20.9783 5.57415 -9.90231 12.9945 -0.242716 -4.98039 87.1815 6.07136 -80.0398 -5.34813 -1.25947e-06 -3.79883e-06 -56.4506 -1.87765 33.5146 -24.3289 0.000322201 -8.65921e-06 7.4249 10.3402 -35.9874 -22.2915 -0.000108084 -4.47941e-06 0.240786 5.5211 -7.4087 -2.19248 -6.46944 -1.22533e-07 -171.978 -8.94626 8.62292 39.0811 -6.73843e-06 -1.23785e-05 -0.000103523 0.0539805 32.716 40.9854 -6.48686e-06 -1.26872e-05 -1.15172 -0.624167 -77.3387 11.7543 -2.30145e-07 3.05095e-06 0.224944 -0.396611 -23.4321 -2.19251 6.46944 -1.45247e-06 -179.008 24.024 149.309 -39.0811 -0.00228153 -0.0401928 -0.0223041 0.0672909 24.1491 -40.9854 7.72618e-06 5.99936e-06 -12.0941 3.5478 -54.1601 -11.7543 -5.6619e-06 -5.58687e-06 0.314391 -0.372308 -20.1574 
0 0 0 0 0 -0 2.97089 86.7026 -343.082 87.8006 -1.1357 3.55992 15.7357 5.1072e-06 -5.51764e-07 29.8661 83.7441 -28.1286 8.98455 -0.406207 -4.3199e-07 -1.37087 -10.9863 3.35045 16.3773 -1.3905e-06 -6.99897e-07 1.13568 -1.41106 3.34393 6.45672 -1.25837e-06 -1.02172e-07 -1.45728 9.65181 4.1252 12.9942 -0.242716 4.98039 -89.9459 -0.186845 -88.8431 5.34809 -7.22636e-06 -6.2814e-07 -40.9159 5.23059 -11.0999 24.3286 1.87007e-05 4.90208e-06 -10.2039 -7.28213 -54.8496 22.2916 -9.88446e-07 4.63217e-06 21.3839 5.5832 -10.3838 12.9945 -0.242716 -4.98039 86.7985 6.64338 -79.197 -5.34813 -1.25947e-06 -3.79883e-06 -55.2558 -1.06833 33.4257 -24.3289 0.000322201 -8.65921e-06 7.37151 9.83318 -37.146 -22.2915 -0.000108084 -4.47941e-06 0.494279 5.52712 -7.66887 -2.19248 -6.46944 -1.22533e-07 -171.678 -8.02768 9.5457 39.0811 -6.73843e-06 -1.23785e-05 -0.0077154 0.0676218 34.2409 40.9854 -6.48686e-06 -1.26872e-05 -1.43802 0.758238 -78.1704 11.7543 -2.30145e-07 3.05095e-06 0.271379 -0.494775 -25.0635 -2.19251 6.46944 -1.45247e-06 -179.277 23.605 147.513 -39.0811 -0.00228153 -0.0401928 -0.0325607 0.0865287 24.7896 -40.9854 7.72618e-06 5.99936e-06 -12.9584 2.53131 -54.5198 -11.7543 -5.6619e-06 -5.58687e-06 0.322469 -0.382523 -20.2531 
0 0 0 0 0 -0 2.25621 85.578 -339.61 88.3947 0.543911 2.91554 15.7357 5.1072e-06 -5.51765e-07 28.5686 83.4445 -26.5672 8.98455 -0.406207 -4.3199e-07 -1.29287 -11.6704 3.87993 16.3773 -1.3905e-06 -6.99897e-07 1.50057 -1.6297 3.20741 6.45672 -1.25837e-06 -1.02172e-07 -1.99801 9.82044 3.33199 12.9942 -0.242716 4.98039 -90.0714 0.249596 -89.0282 5.34809 -7.22636e-06 -6.2814e-07 -40.3286 5.00465 -10.9648 24.3286 1.87007e-05 4.90207e-06 -10.1217 -6.48755 -57.6703 22.2916 -9.88446e-07 4.63217e-06 21.7856 5.59021 -10.7723 12.9945 -0.242716 -4.98039 86.3901 7.24515 -78.4242 -5.34813 -1.25947e-06 -3.79883e-06 -54.0316 -0.0519743 33.316 -24.3289 0.000322201 -8.65921e-06 7.58424 9.87456 -37.8243 -22.2915 -0.000108084 -4.47941e-06 0.63022 5.53251 -7.90625 -2.19248 -6.46944 -1.22533e-07 -170.931 -7.30329 10.4768 39.0811 -6.73843e-06 -1.23785e-05 -0.0205041 0.0867862 35.3474 40.9854 -6.48686e-06 -1.26872e-05 -1.99308 2.56504 -78.4779 11.7543 -2.30145e-07 3.05095e-06 0.328169 -0.62581 -27.209 -2.19251 6.46944 -1.45247e-06 -178.745 23.5962 144.277 -39.0811 -0.00228153 -0.0401928 -0.0527649 0.10974 29.8647 -40.9854 7.72618e-06 5.99936e-06 -9.59177 2.01198 -56.1764 -11.7543 -5.6619e-06 -5.58687e-06 0.302653 -0.357528 -20.0188 
